<?xml version="1.0" encoding="utf-8"?>
<!-- Generator: Adobe Illustrator 16.0.0, SVG Export Plug-In . SVG Version: 6.00 Build 0)  -->
<!DOCTYPE svg PUBLIC "-//W3C//DTD SVG 1.1//EN" "http://www.w3.org/Graphics/SVG/1.1/DTD/svg11.dtd">
<svg version="1.1" id="Capa_1" xmlns="http://www.w3.org/2000/svg" xmlns:xlink="http://www.w3.org/1999/xlink" x="0px" y="0px"
	 width="40px" height="40px" viewBox="0 0 40 40" enable-background="new 0 0 40 40" xml:space="preserve">
<g>
	<path fill="#CCCCCC" d="M18.463,11.795v16.41c0,0.85,0.689,1.538,1.537,1.538c0.85,0,1.539-0.688,1.539-1.538v-16.41
		c0-0.85-0.689-1.538-1.539-1.538C19.152,10.257,18.463,10.945,18.463,11.795"/>
	<path fill="#CCCCCC" d="M28.205,18.462h-16.41c-0.85,0-1.538,0.688-1.538,1.538s0.688,1.539,1.538,1.539h16.41
		c0.85,0,1.539-0.689,1.539-1.539S29.055,18.462,28.205,18.462"/>
	<path fill="#CCCCCC" d="M20,38.462v-1.538c-4.678-0.002-8.9-1.892-11.967-4.957C4.969,28.9,3.077,24.68,3.077,20
		c0-4.679,1.892-8.898,4.956-11.967C11.103,4.968,15.322,3.078,20,3.077c4.678,0.001,8.898,1.891,11.967,4.956
		c3.066,3.068,4.957,7.288,4.957,11.967c0,4.68-1.891,8.9-4.957,11.967c-3.068,3.065-7.289,4.955-11.967,4.957V38.462V40
		c11.047-0.001,20-8.951,20-20C40,8.953,31.047,0.001,20,0C8.954,0.001,0,8.953,0,20c0,11.049,8.954,19.999,20,20V38.462z"/>
</g>
</svg>
