<?xml version="1.0" encoding="utf-8"?>
<!-- Generator: Adobe Illustrator 16.0.0, SVG Export Plug-In . SVG Version: 6.00 Build 0)  -->
<!DOCTYPE svg PUBLIC "-//W3C//DTD SVG 1.1//EN" "http://www.w3.org/Graphics/SVG/1.1/DTD/svg11.dtd">
<svg version="1.1" id="Capa_2" xmlns="http://www.w3.org/2000/svg" xmlns:xlink="http://www.w3.org/1999/xlink" x="0px" y="0px"
	 width="50px" height="50px" viewBox="0 0 50 50" enable-background="new 0 0 50 50" xml:space="preserve">
<rect fill="#57A7E5" width="50" height="50"/>
<path fill="#FFFFFF" d="M19.463,13.924v0.923h11.078c1.278,0,2.427,0.514,3.265,1.351c0.833,0.836,1.347,1.982,1.348,3.26v11.086
	c-0.001,1.275-0.515,2.424-1.348,3.26c-0.838,0.838-1.986,1.351-3.265,1.351H19.459c-1.279,0-2.426-0.513-3.265-1.351
	c-0.832-0.836-1.347-1.984-1.347-3.26V19.462c0-1.278,0.516-2.427,1.348-3.265c0.84-0.837,1.988-1.351,3.268-1.351V13.924V13
	C15.895,13,13,15.893,13,19.462v11.081C13,34.109,15.891,37,19.459,37h11.082c3.569,0,6.458-2.891,6.459-6.457V19.457
	C36.999,15.891,34.11,13,30.541,13H19.463V13.924z"/>
<path fill="none" stroke="#FFFFFF" stroke-width="1.5" stroke-linecap="round" stroke-linejoin="round" stroke-miterlimit="10" d="
	M30.199,22.909c0,4.553-2.6,7.803-7.148,7.803c-2.602,0-3.643-1.356-4.551-2.6 M18.5,28.112c0.02-0.005,1.949-0.65,1.949-0.65
	c-2.172-2.195-2.336-5.445-0.648-7.803c0.801,1.487,2.291,2.861,3.898,3.25c0.062-1.877,1.335-3.25,3.25-3.25
	c1.306,0,2.07,0.498,2.602,1.303H31.5l-1.301,1.947"/>
</svg>
