<?xml version="1.0" encoding="utf-8"?>
<!-- Generator: Adobe Illustrator 16.0.0, SVG Export Plug-In . SVG Version: 6.00 Build 0)  -->
<!DOCTYPE svg PUBLIC "-//W3C//DTD SVG 1.1//EN" "http://www.w3.org/Graphics/SVG/1.1/DTD/svg11.dtd">
<svg version="1.1" id="Capa_2" xmlns="http://www.w3.org/2000/svg" xmlns:xlink="http://www.w3.org/1999/xlink" x="0px" y="0px"
	 width="50px" height="50px" viewBox="0 0 50 50" enable-background="new 0 0 50 50" xml:space="preserve">
<g>
	<rect fill="#0076B4" width="50" height="50"/>
	<g>
		<path fill="#FFFFFF" d="M19.463,13.924v0.923h11.078c1.278,0,2.427,0.514,3.265,1.351c0.833,0.836,1.347,1.982,1.348,3.26v11.086
			c-0.001,1.275-0.515,2.424-1.348,3.26c-0.838,0.838-1.986,1.351-3.265,1.351H19.459c-1.279,0-2.426-0.513-3.265-1.351
			c-0.832-0.836-1.347-1.984-1.347-3.26V19.462c0-1.278,0.516-2.427,1.348-3.265c0.84-0.837,1.988-1.351,3.268-1.351V13.924V13
			C15.895,13,13,15.893,13,19.462v11.081C13,34.109,15.891,37,19.459,37h11.082c3.569,0,6.458-2.891,6.459-6.457V19.457
			C36.999,15.891,34.11,13,30.541,13H19.463V13.924z"/>
		<path fill="#FFFFFF" d="M19.301,23.892v6.647c0,0.51,0.412,0.923,0.921,0.923c0.512,0,0.926-0.413,0.926-0.923v-6.647
			c0-0.509-0.414-0.923-0.926-0.923C19.713,22.969,19.301,23.383,19.301,23.892"/>
		<path fill="#FFFFFF" d="M25.578,30.539v-3.878c0.002-1.019,0.825-1.845,1.844-1.847c1.021,0.002,1.845,0.828,1.847,1.847v3.878
			c0,0.51,0.415,0.923,0.926,0.923c0.507,0,0.921-0.413,0.921-0.923v-3.878c0-2.038-1.654-3.692-3.693-3.692
			c-2.041,0-3.691,1.654-3.691,3.692v3.878c0,0.51,0.416,0.923,0.923,0.923C25.164,31.462,25.578,31.049,25.578,30.539z"/>
		<path fill="#FFFFFF" d="M20.222,18.954c-0.662,0-1.198,0.536-1.198,1.199c0,0.665,0.536,1.198,1.198,1.2
			c0.659,0,1.199-0.529,1.204-1.2C21.421,19.484,20.881,18.954,20.222,18.954c-0.509,0-0.921,0.414-0.921,0.923
			c0,0.51,0.412,0.925,0.921,0.925v-0.648H19.58c0.001,0.365,0.291,0.648,0.642,0.648v-0.648H19.58h0.642v-0.647
			c-0.351,0-0.641,0.283-0.642,0.647h0.642v-0.647v0.647h0.648c-0.001-0.358-0.292-0.647-0.648-0.647v0.647h0.648h-0.648v0.648
			c0.356-0.001,0.647-0.29,0.648-0.648h-0.648v0.648c0.512,0,0.926-0.415,0.926-0.925C21.147,19.368,20.733,18.954,20.222,18.954z"
			/>
	</g>
</g>
</svg>
