<?xml version="1.0" encoding="utf-8"?>
<!-- Generator: Adobe Illustrator 16.0.0, SVG Export Plug-In . SVG Version: 6.00 Build 0)  -->
<!DOCTYPE svg PUBLIC "-//W3C//DTD SVG 1.1//EN" "http://www.w3.org/Graphics/SVG/1.1/DTD/svg11.dtd">
<svg version="1.1" id="Capa_2" xmlns="http://www.w3.org/2000/svg" xmlns:xlink="http://www.w3.org/1999/xlink" x="0px" y="0px"
	 width="50px" height="50px" viewBox="0 0 50 50" enable-background="new 0 0 50 50" xml:space="preserve">
<g>
	<rect fill="#3B5999" width="50" height="50"/>
	<g>
		<path fill="#FFFFFF" d="M19.463,13.924v0.923h11.083c1.274,0,2.421,0.514,3.26,1.351c0.832,0.836,1.347,1.982,1.347,3.26v11.086
			c0,1.275-0.515,2.424-1.347,3.26c-0.839,0.838-1.985,1.351-3.26,1.351H19.459c-1.278,0-2.426-0.513-3.264-1.351
			c-0.833-0.836-1.348-1.984-1.349-3.26V19.462c0.001-1.278,0.516-2.427,1.351-3.265c0.838-0.837,1.986-1.351,3.266-1.351V13.924V13
			C15.892,13,13,15.893,13,19.462v11.081C13,34.109,15.89,37,19.459,37h11.087C34.111,37,37,34.109,37,30.543V19.457
			C37,15.891,34.111,13,30.546,13H19.463V13.924z"/>
		<path fill="#FFFFFF" d="M23.894,27.031h6.644c0.512,0,0.927-0.414,0.927-0.922c0-0.511-0.415-0.924-0.927-0.924h-6.644
			c-0.511,0-0.926,0.413-0.926,0.924C22.968,26.617,23.383,27.031,23.894,27.031"/>
		<path fill="#FFFFFF" d="M30.537,19.646h-1.16c-2.315,0-4.191,1.875-4.191,4.189V25v11.076c0,0.512,0.414,0.924,0.922,0.924
			c0.509,0,0.925-0.412,0.925-0.924V25v-1.164c0.002-1.297,1.045-2.342,2.345-2.342h1.16c0.512,0,0.925-0.415,0.925-0.925
			S31.049,19.646,30.537,19.646z"/>
	</g>
</g>
</svg>
